# xmcd
# Copyright (C) 1995-1998 Ti Kan
#
# Track frame offsets:
#       150
#       19069
#       41635
#       58262
#       78935
#       95924
#       114664
#       132398
#       153325
#       169172
#       191267
#       210838
#
# Disc length: 3027 seconds
#
# Revision: 0
# Processed by: cddbd v1.5.1PL0 Copyright (c) Steve Scherf et al.
# Submitted via: CD-Transfer v1.0
#
DISCID=9d0bd10c
DTITLE=Renée Rousseau - 
DYEAR=00
DGENRE=
TTITLE0=Heaven
TTITLE1=He's There
TTITLE2=His Love 2000
TTITLE3=Everlasting Love
TTITLE4=Hope
TTITLE5=El Shaddai
TTITLE6=Footprints
TTITLE7=Long Lost Love
TTITLE8=Do Unto Others
TTITLE9=Midnight Secret
TTITLE10=Blessed Assurance
TTITLE11=Lords Prayer
EXTD=
EXTT0=
EXTT1=
EXTT2=
EXTT3=
EXTT4=
EXTT5=
EXTT6=
EXTT7=
EXTT8=
EXTT9=
EXTT10=
EXTT11=
PLAYORDER=
